<?xml version="1.0" standalone="no"?><!DOCTYPE svg PUBLIC "-//W3C//DTD SVG 1.1//EN" "http://www.w3.org/Graphics/SVG/1.1/DTD/svg11.dtd"><svg t="1744768393664" class="icon" viewBox="0 0 1024 1024" version="1.1" xmlns="http://www.w3.org/2000/svg" p-id="38764" xmlns:xlink="http://www.w3.org/1999/xlink" width="256" height="256"><path d="M421.061629 934.286242c-100.952843 0-194.79423-21.595454-264.217959-60.832791-68.379389-38.628139-106.012918-90.43485-106.050217-145.859454a22.987907 22.987907 0 0 1 22.37871-23.522509h0.609198a22.876014 22.876014 0 0 1 22.987907 22.378709v1.131368c0 42.954689 34.811325 83.509883 97.782526 114.206012 61.765237 30.074499 142.241562 46.647176 226.634161 46.647176 18.847846 0 37.098927-0.795687 54.218639-2.362197 0.745957-0.074596 1.467049-0.099461 2.150843-0.099461a22.950609 22.950609 0 0 1 1.864892 45.801758 678.191754 678.191754 0 0 1-58.3587 2.511389z m0-275.668399c-100.965276 0-194.806663-21.607887-264.217959-60.820359-68.379389-38.640571-106.012918-90.447283-106.050217-145.884318a23.012773 23.012773 0 0 1 22.37871-23.510077h0.609198a22.876014 22.876014 0 0 1 22.987907 22.378709v1.131368c0 42.954689 34.811325 83.509883 97.782526 114.206012 61.765237 30.074499 142.241562 46.647176 226.634161 46.647176 18.860279 0 37.111359-0.795687 54.218639-2.362197h2.225439a22.950609 22.950609 0 0 1 1.864892 45.801758c-19.171094 1.653538-38.677869 2.486523-58.02302 2.486523z m0-245.046865c-101.102035 0-194.968287-21.62032-264.292555-60.845224C88.389685 314.07275 50.73129 262.241173 50.73129 206.779272s37.658394-107.293478 106.037784-145.958914C226.192803 21.595454 320.021757 0 420.987033 0s194.781798 21.595454 264.168229 60.820358c68.379389 38.653004 105.988053 90.509446 105.988053 146.021078s-37.645962 107.343208-105.988053 145.946481c-69.23724 39.137876-162.867272 60.720897-263.720655 60.770628z m0.372978-367.707057h-0.372978c-84.380166 0-164.856491 16.560245-226.621728 46.647176-63.058229 30.696129-97.782526 71.288621-97.782526 114.268175s34.724297 83.559613 97.782526 114.280609c61.715507 30.074499 142.191831 46.585013 226.621728 46.585012s164.844058-16.560245 226.522267-46.634743c63.020931-30.720995 97.720363-71.301054 97.720363-114.280608s-34.699432-83.559613-97.720363-114.268175c-61.653344-29.98747-141.943179-46.547715-226.149289-46.597446z" fill="#3b9dff" p-id="38765"></path><path d="M765.731048 1024c-57.7868 0-110.737312-12.54451-149.116799-35.30863-37.49677-22.217085-58.147346-52.46564-58.147346-85.175854a23.037638 23.037638 0 0 1 22.987907-22.987907h0.198922a22.888446 22.888446 0 0 1 22.801418 22.540333v0.497305c0 18.512166 17.405663 37.434607 47.703949 51.844009 31.019377 14.695352 71.400515 22.788985 113.683842 22.788986s82.68933-8.093633 113.770871-22.788986c30.260988-14.359672 47.641785-33.269681 47.641785-51.918605a23.05007 23.05007 0 0 1 22.987907-22.987907h0.23622a22.863581 22.863581 0 0 1 22.788986 22.540333v0.497305c0 32.623185-20.700306 62.87174-58.30897 85.126123-38.516245 22.788985-91.491623 35.333495-149.228692 35.333495zM73.781361 750.569472a23.05007 23.05007 0 0 1-23.00034-22.987907V206.853868a23.025205 23.025205 0 0 1 22.378709-23.510077h0.609198a22.876014 22.876014 0 0 1 22.987908 22.378709v521.908795a23.186829 23.186829 0 0 1-22.95061 22.938177z m691.937254-3.045991c-57.749502 0-110.650284-12.54451-149.054636-35.30863-37.49677-22.217085-58.147346-52.46564-58.147346-85.175853s20.650575-62.946336 58.147346-85.163421c38.429217-22.76412 91.379729-35.30863 149.116799-35.30863s110.737312 12.54451 149.116799 35.30863c37.49677 22.217085 58.147346 52.46564 58.147346 85.163421 0 22.664659-9.423923 43.588752-27.998252 62.163081-36.489729 36.502161-103.50153 58.246807-179.265893 58.259239h-0.062163z m0-195.092613c-42.159002 0-82.540139 8.093633-113.683843 22.788985-30.310718 14.359672-47.703948 33.244816-47.703948 51.819145s17.405663 37.471905 47.703948 51.89374c31.08154 14.695352 71.412947 22.788985 113.708708 22.788985s82.540139-8.093633 113.708708-22.788985c30.310718-14.359672 47.691516-33.269681 47.691516-51.89374 0-9.871497-4.973046-20.091108-14.409403-29.564762-27.351756-27.351756-85.01423-45.043368-147.015686-45.043368z m2.585984-104.297217a23.025205 23.025205 0 0 1-22.963042-23.037638v-218.316741a23.00034 23.00034 0 0 1 46.00068 0v218.391337a23.149531 23.149531 0 0 1-22.963042 22.900879z" fill="#3b9dff" p-id="38766"></path><path d="M765.731048 877.655675c-57.7868 0-110.737312-12.54451-149.116799-35.321063-37.49677-22.204653-58.147346-52.453208-58.147346-85.163421a23.05007 23.05007 0 0 1 22.975475-23.00034h0.198922a22.888446 22.888446 0 0 1 22.81385 22.614929v0.47244c0 18.512166 17.405663 37.422175 47.703949 51.844009 31.08154 14.695352 71.42538 22.788985 113.683842 22.788986s82.552572-8.143364 113.770871-22.888447c30.310718-14.347239 47.691516-33.269681 47.691516-51.881307a23.037638 23.037638 0 0 1 22.987907-23.00034h0.186489a22.863581 22.863581 0 0 1 22.751688 22.664659v0.484872c0 32.585887-20.700306 62.797144-58.30897 85.039095-38.49138 22.776553-91.47919 35.345928-149.191394 35.345928z" fill="#3b9dff" p-id="38767"></path><path d="M950.106746 926.39153a23.05007 23.05007 0 0 1-22.975475-22.987907V626.976835a23.062503 23.062503 0 0 1 22.975475-22.987908h0.198922a22.900879 22.900879 0 0 1 22.81385 22.577631v276.924093a23.012773 23.012773 0 0 1-22.963042 22.876014z m-368.801127 0a23.037638 23.037638 0 0 1-23.00034-22.900879V626.976835a23.037638 23.037638 0 0 1 23.00034-22.987908h0.211354a22.876014 22.876014 0 0 1 22.801419 22.565199v276.936525a23.00034 23.00034 0 0 1-22.95061 22.876014z" fill="#3b9dff" p-id="38768"></path></svg>